<svg width="384" height="384" viewBox="0 0 384 384" fill="none" xmlns="http://www.w3.org/2000/svg">
<path d="M197.925 94L170.644 115.079L152 149.361M197.925 94L221.135 129.918M197.925 94L191.19 136.957M152 149.361L162.007 267.389M152 149.361L178.748 163.135M162.007 267.389L174.411 294.67M162.007 267.389L178.748 262.519M174.411 294.67L185.483 303.041M174.411 294.67L186.853 281.695M185.483 303.041L201.692 292.768M185.483 303.041L186.853 281.695M201.692 292.768L215.466 274.39M201.692 292.768L194.691 276.292M215.466 274.39L228.44 166.94M215.466 274.39L200.094 244.141M215.466 274.39L194.691 276.292M228.44 166.94L221.135 129.918M228.44 166.94L201.692 154.231M221.135 129.918L201.692 154.231M178.748 163.135L201.692 154.231M178.748 163.135V262.519M178.748 163.135L191.19 136.957M201.692 154.231L200.094 244.141M201.692 154.231L191.19 136.957M200.094 244.141L194.691 276.292M194.691 276.292L186.853 281.695M186.853 281.695L178.748 262.519" stroke="url(#paint0_linear_1413_3550)" stroke-width="6.5"/>
<path d="M74.8752 106.167C77.5832 107.873 79.5505 109.841 80.7769 112.068C82.0034 114.296 82.545 116.608 82.4017 119.002C82.2635 121.389 81.5002 123.683 80.1119 125.887C78.7186 128.098 76.9713 129.778 74.8702 130.928C72.7691 132.078 70.453 132.583 67.9219 132.443C65.3879 132.29 62.7709 131.363 60.0709 129.662C57.3629 127.955 55.3932 125.992 54.1616 123.772C52.9351 121.544 52.391 119.237 52.5292 116.851C52.6675 114.464 53.4333 112.165 54.8266 109.954C56.2149 107.751 57.9556 106.072 60.0488 104.917C62.1469 103.754 64.4656 103.245 67.0046 103.39C69.5437 103.535 72.1672 104.461 74.8752 106.167ZM71.0435 112.248C69.4411 111.238 67.9433 110.614 66.5499 110.374C65.1615 110.126 63.9154 110.247 62.8114 110.738C61.7125 111.221 60.7895 112.055 60.0423 113.241C59.3002 114.418 58.946 115.611 58.9797 116.819C59.0134 118.026 59.4392 119.207 60.2571 120.36C61.08 121.506 62.2927 122.583 63.895 123.593C65.4974 124.602 66.9928 125.231 68.3811 125.479C69.7745 125.719 71.0232 125.594 72.1271 125.103C73.2311 124.612 74.1541 123.778 74.8962 122.6C75.6434 121.414 75.9976 120.222 75.9588 119.022C75.9251 117.814 75.4968 116.638 74.6739 115.493C73.856 114.339 72.6459 113.258 71.0435 112.248Z" fill="url(#paint1_linear_1413_3550)"/>
<path d="M95.0391 105.42L75.2794 84.0702L80.4397 79.2943L96.3208 96.4537L105.203 88.2333L109.081 92.4241L95.0391 105.42Z" fill="url(#paint2_linear_1413_3550)"/>
<path d="M120.062 51.5879L133.623 77.3249L127.402 80.6025L113.842 54.8655L120.062 51.5879Z" fill="url(#paint3_linear_1413_3550)"/>
<path d="M149.276 40.4572L160.335 59.7962L160.571 59.7428L162.2 37.5246L169.875 35.7832L166.74 66.3249L157.611 68.3963L141.602 42.1986L149.276 40.4572Z" fill="url(#paint4_linear_1413_3550)"/>
<path d="M201.802 35.2851L200.677 64.3543L193.651 64.0825L194.776 35.0133L201.802 35.2851Z" fill="url(#paint5_linear_1413_3550)"/>
<path d="M221.382 67.2113L229.992 39.4237L249.367 45.4271L247.677 50.8815L235.018 46.9591L233.252 52.6578L244.921 56.2733L243.227 61.7412L231.558 58.1257L229.788 63.8379L242.447 67.7603L240.757 73.2147L221.382 67.2113Z" fill="url(#paint6_linear_1413_3550)"/>
<path d="M252.314 78.5084L267.823 53.8961L277.99 60.3024C279.833 61.4636 281.214 62.7981 282.133 64.3062C283.065 65.8113 283.506 67.4105 283.458 69.1037C283.415 70.7889 282.863 72.4727 281.803 74.1552C280.728 75.8617 279.441 77.0771 277.944 77.8014C276.452 78.5176 274.824 78.7566 273.06 78.5182C271.301 78.2719 269.484 77.5581 267.61 76.3767L261.18 72.3254L264.133 67.6385L269.457 70.9931C270.355 71.5586 271.177 71.9144 271.924 72.0607C272.684 72.204 273.372 72.1338 273.988 71.8499C274.608 71.5581 275.158 71.0316 275.638 70.2705C276.117 69.5094 276.357 68.782 276.358 68.0884C276.363 67.3868 276.14 66.7199 275.688 66.0879C275.24 65.4478 274.572 64.8476 273.683 64.2873L270.75 62.4396L258.263 82.2568L252.314 78.5084ZM273.259 75.9909L272.3 91.1015L265.81 87.0123L266.889 71.9775L273.259 75.9909Z" fill="url(#paint7_linear_1413_3550)"/>
<path d="M308.238 106.697C305.889 108.871 303.48 110.262 301.01 110.87C298.541 111.478 296.168 111.403 293.892 110.645C291.623 109.893 289.604 108.562 287.835 106.651C286.059 104.733 284.888 102.61 284.322 100.283C283.755 97.956 283.867 95.5881 284.657 93.1795C285.46 90.7714 287.033 88.4835 289.375 86.3158C291.724 84.1417 294.13 82.7472 296.593 82.1322C299.063 81.5241 301.432 81.5956 303.702 82.3468C305.971 83.0981 307.993 84.4328 309.769 86.3509C311.538 88.2622 312.709 90.3781 313.283 92.6988C313.863 95.0264 313.754 97.3977 312.957 99.8128C312.16 102.228 310.587 104.522 308.238 106.697ZM303.356 101.422C304.746 100.135 305.737 98.85 306.329 97.5662C306.928 96.2893 307.134 95.0542 306.945 93.8608C306.763 92.6744 306.196 91.5669 305.244 90.5383C304.299 89.5167 303.238 88.8658 302.063 88.5858C300.888 88.3058 299.637 88.4116 298.312 88.9031C296.992 89.4015 295.638 90.294 294.248 91.5804C292.858 92.8669 291.863 94.1485 291.264 95.4253C290.672 96.7091 290.47 97.9477 290.658 99.1411C290.847 100.334 291.414 101.442 292.359 102.464C293.311 103.492 294.372 104.143 295.54 104.416C296.716 104.696 297.963 104.587 299.282 104.088C300.608 103.597 301.966 102.708 303.356 101.422Z" fill="url(#paint8_linear_1413_3550)"/>
<path d="M327.507 109.067L331.169 116.016L323.266 127.132L323.385 127.358L337.022 127.125L340.684 134.075L318.583 133.694L309.987 138.223L306.729 132.04L315.325 127.511L327.507 109.067Z" fill="url(#paint9_linear_1413_3550)"/>
<path d="M323.191 199.409L323.607 188.664L352.676 189.789L352.261 200.519C352.146 203.481 351.466 206.009 350.219 208.102C348.981 210.206 347.252 211.797 345.031 212.877C342.819 213.957 340.203 214.439 337.185 214.322C334.157 214.205 331.577 213.522 329.446 212.274C327.314 211.035 325.708 209.32 324.627 207.126C323.555 204.934 323.077 202.361 323.191 199.409ZM329.325 195.922L329.191 199.371C329.128 200.999 329.35 202.386 329.855 203.533C330.369 204.69 331.24 205.582 332.466 206.207C333.702 206.843 335.366 207.201 337.457 207.282C339.548 207.363 341.225 207.134 342.487 206.595C343.759 206.057 344.692 205.226 345.285 204.102C345.887 202.988 346.22 201.598 346.285 199.933L346.414 196.583L329.325 195.922Z" fill="url(#paint10_linear_1413_3550)"/>
<path d="M320.107 225.993L347.894 234.603L341.891 253.978L336.436 252.288L340.359 239.629L334.66 237.863L331.045 249.532L325.577 247.838L329.192 236.169L323.48 234.399L319.558 247.058L314.103 245.368L320.107 225.993Z" fill="url(#paint11_linear_1413_3550)"/>
<path d="M331.067 276.172L309.572 270.317L309.443 270.521L324.002 287.384L319.806 294.042L300.427 270.229L305.417 262.31L335.262 269.514L331.067 276.172Z" fill="url(#paint12_linear_1413_3550)"/>
<path d="M261.228 308.206L274.788 333.943L257.22 343.199L254.558 338.147L265.906 332.168L263.125 326.89L252.896 332.28L250.227 327.216L260.457 321.826L255.007 311.483L261.228 308.206Z" fill="url(#paint13_linear_1413_3550)"/>
<path d="M231.301 322.125L237.739 350.494L226.02 353.153C223.896 353.635 221.975 353.668 220.259 353.252C218.536 352.846 217.093 352.028 215.93 350.797C214.769 349.574 213.968 347.993 213.528 346.054C213.082 344.087 213.132 342.318 213.679 340.747C214.227 339.186 215.21 337.865 216.625 336.787C218.043 335.717 219.832 334.937 221.993 334.447L229.404 332.766L230.63 338.168L224.494 339.56C223.459 339.795 222.626 340.125 221.994 340.55C221.355 340.986 220.919 341.522 220.684 342.158C220.452 342.803 220.435 343.564 220.634 344.442C220.834 345.319 221.178 346.003 221.668 346.494C222.16 346.994 222.79 347.308 223.557 347.435C224.326 347.571 225.223 347.523 226.248 347.29L229.628 346.523L224.444 323.68L231.301 322.125ZM218.272 338.715L208.265 327.352L215.745 325.654L225.613 337.049L218.272 338.715Z" fill="url(#paint14_linear_1413_3550)"/>
<path d="M171.826 341.736C171.949 338.538 172.669 335.851 173.985 333.675C175.302 331.498 177.032 329.874 179.178 328.801C181.314 327.727 183.683 327.241 186.285 327.341C188.897 327.442 191.226 328.115 193.272 329.36C195.318 330.605 196.913 332.358 198.058 334.62C199.192 336.891 199.698 339.621 199.575 342.81C199.451 346.008 198.736 348.696 197.429 350.872C196.113 353.048 194.387 354.673 192.251 355.747C190.115 356.82 187.741 357.306 185.13 357.205C182.527 357.105 180.203 356.437 178.156 355.201C176.1 353.966 174.5 352.212 173.356 349.941C172.212 347.67 171.702 344.935 171.826 341.736ZM179.008 342.014C178.934 343.907 179.142 345.516 179.631 346.843C180.111 348.169 180.839 349.188 181.816 349.898C182.783 350.609 183.967 350.991 185.368 351.045C186.759 351.099 187.969 350.809 188.998 350.176C190.027 349.543 190.836 348.584 191.426 347.299C192.007 346.014 192.334 344.425 192.407 342.533C192.48 340.64 192.277 339.031 191.798 337.704C191.309 336.378 190.576 335.359 189.599 334.648C188.622 333.938 187.438 333.555 186.047 333.502C184.646 333.447 183.436 333.737 182.417 334.37C181.388 335.003 180.583 335.963 180.002 337.248C179.412 338.533 179.081 340.122 179.008 342.014Z" fill="url(#paint15_linear_1413_3550)"/>
<path d="M131.897 346.055L140.507 318.267L146.206 320.033L152.295 339.497L152.471 339.552L157.44 323.514L164.157 325.595L155.547 353.383L149.767 351.592L143.792 332.193L143.561 332.121L138.6 348.132L131.897 346.055Z" fill="url(#paint16_linear_1413_3550)"/>
<path d="M118.373 333.482L115.329 338.313L94.5262 325.205L97.5704 320.374L105.033 325.077L117.498 305.296L123.362 308.991L110.898 328.772L118.373 333.482Z" fill="url(#paint17_linear_1413_3550)"/>
<path d="M78.9082 289.883L82.8384 286.245L91.985 296.128L88.0548 299.766L78.9082 289.883Z" fill="url(#paint18_linear_1413_3550)"/>
<path d="M79.0777 265.773L53.3408 279.334L43.8854 261.389L48.9373 258.727L55.1151 270.452L60.3932 267.671L54.6988 256.863L59.7632 254.195L65.4576 265.002L70.7483 262.215L64.5705 250.49L69.6224 247.828L79.0777 265.773Z" fill="url(#paint19_linear_1413_3550)"/>
<path d="M31.6432 219.519L60.0129 213.082L61.3331 218.9L47.5213 233.905L47.5621 234.085L63.9357 230.37L65.4916 237.227L37.1218 243.664L35.7828 237.763L49.5952 222.889L49.5418 222.653L33.1959 226.362L31.6432 219.519Z" fill="url(#paint20_linear_1413_3550)"/>
<path d="M59.5157 192.52L59.1 203.265L30.0308 202.14L30.446 191.41C30.5606 188.448 31.2412 185.92 32.4878 183.827C33.7254 181.723 35.4548 180.132 37.6763 179.052C39.8882 177.972 42.5035 177.49 45.5221 177.607C48.5501 177.724 51.1298 178.407 53.2612 179.655C55.3929 180.894 56.9992 182.61 58.08 184.803C59.1514 186.995 59.6299 189.568 59.5157 192.52ZM53.382 196.007L53.5154 192.558C53.5784 190.93 53.3572 189.543 52.852 188.396C52.3376 187.239 51.4671 186.347 50.2403 185.722C49.0045 185.086 47.341 184.728 45.2497 184.647C43.1585 184.566 41.4817 184.795 40.2194 185.334C38.9476 185.872 38.0152 186.703 37.4221 187.827C36.8198 188.941 36.4865 190.331 36.4221 191.996L36.2925 195.346L53.382 196.007Z" fill="url(#paint21_linear_1413_3550)"/>
<rect x="6" y="6" width="372" height="372" rx="186" stroke="url(#paint22_linear_1413_3550)" stroke-width="12"/>
<defs>
<linearGradient id="paint0_linear_1413_3550" x1="190.22" y1="94" x2="190.22" y2="303.041" gradientUnits="userSpaceOnUse">
<stop stop-color="#85F8FF"/>
<stop offset="1" stop-color="#4D40CB"/>
</linearGradient>
<linearGradient id="paint1_linear_1413_3550" x1="191.353" y1="35.0133" x2="191.353" y2="357.218" gradientUnits="userSpaceOnUse">
<stop stop-color="#85F8FF"/>
<stop offset="1" stop-color="#4D40CB"/>
</linearGradient>
<linearGradient id="paint2_linear_1413_3550" x1="191.353" y1="35.0133" x2="191.353" y2="357.218" gradientUnits="userSpaceOnUse">
<stop stop-color="#85F8FF"/>
<stop offset="1" stop-color="#4D40CB"/>
</linearGradient>
<linearGradient id="paint3_linear_1413_3550" x1="191.353" y1="35.0133" x2="191.353" y2="357.218" gradientUnits="userSpaceOnUse">
<stop stop-color="#85F8FF"/>
<stop offset="1" stop-color="#4D40CB"/>
</linearGradient>
<linearGradient id="paint4_linear_1413_3550" x1="191.353" y1="35.0133" x2="191.353" y2="357.218" gradientUnits="userSpaceOnUse">
<stop stop-color="#85F8FF"/>
<stop offset="1" stop-color="#4D40CB"/>
</linearGradient>
<linearGradient id="paint5_linear_1413_3550" x1="191.353" y1="35.0133" x2="191.353" y2="357.218" gradientUnits="userSpaceOnUse">
<stop stop-color="#85F8FF"/>
<stop offset="1" stop-color="#4D40CB"/>
</linearGradient>
<linearGradient id="paint6_linear_1413_3550" x1="191.353" y1="35.0133" x2="191.353" y2="357.218" gradientUnits="userSpaceOnUse">
<stop stop-color="#85F8FF"/>
<stop offset="1" stop-color="#4D40CB"/>
</linearGradient>
<linearGradient id="paint7_linear_1413_3550" x1="191.353" y1="35.0133" x2="191.353" y2="357.218" gradientUnits="userSpaceOnUse">
<stop stop-color="#85F8FF"/>
<stop offset="1" stop-color="#4D40CB"/>
</linearGradient>
<linearGradient id="paint8_linear_1413_3550" x1="191.353" y1="35.0133" x2="191.353" y2="357.218" gradientUnits="userSpaceOnUse">
<stop stop-color="#85F8FF"/>
<stop offset="1" stop-color="#4D40CB"/>
</linearGradient>
<linearGradient id="paint9_linear_1413_3550" x1="191.353" y1="35.0133" x2="191.353" y2="357.218" gradientUnits="userSpaceOnUse">
<stop stop-color="#85F8FF"/>
<stop offset="1" stop-color="#4D40CB"/>
</linearGradient>
<linearGradient id="paint10_linear_1413_3550" x1="191.353" y1="35.0133" x2="191.353" y2="357.218" gradientUnits="userSpaceOnUse">
<stop stop-color="#85F8FF"/>
<stop offset="1" stop-color="#4D40CB"/>
</linearGradient>
<linearGradient id="paint11_linear_1413_3550" x1="191.353" y1="35.0133" x2="191.353" y2="357.218" gradientUnits="userSpaceOnUse">
<stop stop-color="#85F8FF"/>
<stop offset="1" stop-color="#4D40CB"/>
</linearGradient>
<linearGradient id="paint12_linear_1413_3550" x1="191.353" y1="35.0133" x2="191.353" y2="357.218" gradientUnits="userSpaceOnUse">
<stop stop-color="#85F8FF"/>
<stop offset="1" stop-color="#4D40CB"/>
</linearGradient>
<linearGradient id="paint13_linear_1413_3550" x1="191.353" y1="35.0133" x2="191.353" y2="357.218" gradientUnits="userSpaceOnUse">
<stop stop-color="#85F8FF"/>
<stop offset="1" stop-color="#4D40CB"/>
</linearGradient>
<linearGradient id="paint14_linear_1413_3550" x1="191.353" y1="35.0133" x2="191.353" y2="357.218" gradientUnits="userSpaceOnUse">
<stop stop-color="#85F8FF"/>
<stop offset="1" stop-color="#4D40CB"/>
</linearGradient>
<linearGradient id="paint15_linear_1413_3550" x1="191.353" y1="35.0133" x2="191.353" y2="357.218" gradientUnits="userSpaceOnUse">
<stop stop-color="#85F8FF"/>
<stop offset="1" stop-color="#4D40CB"/>
</linearGradient>
<linearGradient id="paint16_linear_1413_3550" x1="191.353" y1="35.0133" x2="191.353" y2="357.218" gradientUnits="userSpaceOnUse">
<stop stop-color="#85F8FF"/>
<stop offset="1" stop-color="#4D40CB"/>
</linearGradient>
<linearGradient id="paint17_linear_1413_3550" x1="191.353" y1="35.0133" x2="191.353" y2="357.218" gradientUnits="userSpaceOnUse">
<stop stop-color="#85F8FF"/>
<stop offset="1" stop-color="#4D40CB"/>
</linearGradient>
<linearGradient id="paint18_linear_1413_3550" x1="191.353" y1="35.0133" x2="191.353" y2="357.218" gradientUnits="userSpaceOnUse">
<stop stop-color="#85F8FF"/>
<stop offset="1" stop-color="#4D40CB"/>
</linearGradient>
<linearGradient id="paint19_linear_1413_3550" x1="191.353" y1="35.0133" x2="191.353" y2="357.218" gradientUnits="userSpaceOnUse">
<stop stop-color="#85F8FF"/>
<stop offset="1" stop-color="#4D40CB"/>
</linearGradient>
<linearGradient id="paint20_linear_1413_3550" x1="191.353" y1="35.0133" x2="191.353" y2="357.218" gradientUnits="userSpaceOnUse">
<stop stop-color="#85F8FF"/>
<stop offset="1" stop-color="#4D40CB"/>
</linearGradient>
<linearGradient id="paint21_linear_1413_3550" x1="191.353" y1="35.0133" x2="191.353" y2="357.218" gradientUnits="userSpaceOnUse">
<stop stop-color="#85F8FF"/>
<stop offset="1" stop-color="#4D40CB"/>
</linearGradient>
<linearGradient id="paint22_linear_1413_3550" x1="192" y1="6" x2="192" y2="378" gradientUnits="userSpaceOnUse">
<stop stop-color="#85F8FF"/>
<stop offset="1" stop-color="#4D40CB"/>
</linearGradient>
</defs>
</svg>
